<?xml version="1.0" standalone="no"?>
<!DOCTYPE svg PUBLIC "-//W3C//DTD SVG 20010904//EN"
 "http://www.w3.org/TR/2001/REC-SVG-20010904/DTD/svg10.dtd">
<svg version="1.0" xmlns="http://www.w3.org/2000/svg"
 width="235.000000pt" height="235.000000pt" viewBox="0 0 235.000000 235.000000"
 preserveAspectRatio="xMidYMid meet">

<g transform="translate(0.000000,235.000000) scale(0.100000,-0.100000)"
fill="#000000" stroke="none">
<path d="M0 1175 l0 -1175 1175 0 1175 0 0 1175 0 1175 -1175 0 -1175 0 0
-1175z m770 698 c0 -19 -7 -48 -16 -65 -9 -18 -14 -44 -11 -62 3 -17 11 -63
17 -102 10 -62 10 -75 -5 -103 -13 -27 -19 -30 -31 -20 -8 6 -14 26 -14 44 0
17 -5 47 -11 65 -11 31 -13 32 -55 27 -24 -2 -44 -1 -44 3 0 4 25 31 55 61 52
51 55 56 55 104 0 56 22 98 45 89 9 -4 15 -19 15 -41z m448 -114 c12 -5 27
-21 33 -36 20 -53 49 -198 49 -250 0 -49 2 -53 27 -59 37 -10 57 18 77 108 10
40 23 87 30 103 l14 30 17 -40 c30 -69 17 -180 -31 -252 -19 -30 -64 -30 -132
-2 -61 25 -77 21 -95 -23 -27 -64 -135 -135 -241 -158 -23 -5 -72 -20 -111
-34 -92 -32 -220 -50 -271 -37 -138 35 -169 48 -172 70 -9 57 3 68 105 100 54
16 127 48 163 69 36 22 75 42 88 46 12 4 22 11 22 16 0 4 16 31 35 59 19 28
35 57 35 64 0 7 7 22 15 33 13 16 14 16 9 1 -12 -35 6 -87 33 -98 35 -13 48 1
47 51 -2 48 -18 70 -51 70 -21 0 -23 3 -17 23 4 12 8 29 9 39 3 42 83 92 177
112 61 13 88 12 136 -5z m61 -511 c-5 -18 -9 -34 -9 -35 0 -1 -14 -10 -31 -18
-31 -16 -31 -16 -23 7 9 30 46 77 61 77 8 1 9 -8 2 -31z m-216 -440 c-4 -13
-7 -41 -7 -63 1 -22 -1 -33 -4 -25 -3 8 -16 29 -29 46 -29 38 -29 42 0 54 39
15 49 12 40 -12z m63 -209 c14 -28 27 -99 18 -99 -5 0 -48 94 -59 131 -7 22
-6 23 9 10 10 -8 24 -27 32 -42z"/>
<path d="M1098 1692 c-9 -34 27 -100 58 -108 37 -10 58 7 62 48 4 43 -21 68
-76 75 -33 4 -40 2 -44 -15z"/>
<path d="M1036 1494 c-19 -18 -20 -36 -5 -51 19 -19 -58 -50 -248 -102 -111
-30 -178 -53 -184 -63 -11 -19 -3 -44 16 -52 16 -6 327 75 400 104 51 21 105
62 105 80 0 15 41 12 93 -6 52 -18 77 -9 77 27 0 27 -37 47 -116 64 -89 19
-119 19 -138 -1z"/>
</g>
</svg>
